<?xml version="1.0" encoding="UTF-8" standalone="no"?>
<svg
   xmlns:dc="http://purl.org/dc/elements/1.1/"
   xmlns:cc="http://creativecommons.org/ns#"
   xmlns:rdf="http://www.w3.org/1999/02/22-rdf-syntax-ns#"
   xmlns:svg="http://www.w3.org/2000/svg"
   xmlns="http://www.w3.org/2000/svg"
   id="svg8"
   version="1.1"
   viewBox="0 0 39.687499 21.166667"
   height="80"
   width="150">
  <defs
     id="defs2">
    <filter
       height="1.1817461"
       y="-0.090873048"
       width="1.0758485"
       x="-0.037924234"
       id="filter971"
       style="color-interpolation-filters:sRGB">
      <feGaussianBlur
         id="feGaussianBlur973"
         stdDeviation="0.5169215" />
    </filter>
  </defs>
  <metadata
     id="metadata5">
    <rdf:RDF>
      <cc:Work
         rdf:about="">
        <dc:format>image/svg+xml</dc:format>
        <dc:type
           rdf:resource="http://purl.org/dc/dcmitype/StillImage" />
        <dc:title></dc:title>
      </cc:Work>
    </rdf:RDF>
  </metadata>
  <g
     transform="translate(0,-275.83333)"
     id="layer1">
    <g
       id="text817"
       style="font-style:normal;font-weight:normal;font-size:18.65046501px;line-height:1.25;font-family:sans-serif;letter-spacing:0px;word-spacing:0px;opacity:0.80699978;fill:#ffffff;fill-opacity:1;stroke:none;stroke-width:0.46626166"
       transform="scale(1.0322179,0.96878769)"
       aria-label="TV1">
      <g
         transform="translate(0.15544937,0.275457)"
         id="g1000">
        <g
           aria-label="TV1"
           transform="translate(-0.70684572,-13.655389)"
           style="font-style:normal;font-weight:normal;font-size:18.65046501px;line-height:1.25;font-family:sans-serif;letter-spacing:0px;word-spacing:0px;opacity:0.60500004;fill:#5c5c5c;fill-opacity:1;stroke:none;stroke-width:0.46626166;filter:url(#filter971)"
           id="text821">
          <path
             d="M 3.5312312,306.86089 H 3.4193284 v -4.66262 H 14.441753 v 0.11191 l 1.063077,1.06307 v 4.55072 h -2.890822 v 7.92644 H 7.5410812 L 6.4780047,314.78734 H 6.3661019 v -6.86337 H 4.5943077 Z m 7.5534388,-0.46626 h 2.890822 v -3.7301 H 3.88559 v 3.7301 h 2.9467735 v 7.92645 H 11.08467 Z"
             style="font-style:normal;font-variant:normal;font-weight:normal;font-stretch:normal;font-family:'Strenuous 3D';-inkscape-font-specification:'Strenuous 3D';fill:#5c5c5c;fill-opacity:1;stroke-width:0.46626166"
             id="path975" />
          <path
             d="m 15.299667,302.19827 h 5.781645 l 0.0373,0.14921 1.025775,1.02577 0.205155,0.93253 0.503563,-2.10751 h 5.016975 l -0.0373,0.11191 1.081727,1.06307 -3.879297,12.47716 h -4.681266 l -1.063077,-1.06307 h -0.09325 z m 4.233656,12.12281 h 4.084452 l 3.61819,-11.65655 h -4.00985 l -1.230931,5.61379 -0.335708,-1.73449 -0.951174,-3.8793 h -4.774519 z"
             style="font-style:normal;font-variant:normal;font-weight:normal;font-stretch:normal;font-family:'Strenuous 3D';-inkscape-font-specification:'Strenuous 3D';fill:#5c5c5c;fill-opacity:1;stroke-width:0.46626166"
             id="path977" />
          <path
             d="m 30.182728,314.78734 h -0.111903 v -6.26656 l -0.895223,-0.89522 H 29.0637 v -4.56937 q 1.324183,-0.0187 1.417435,-0.85792 h 4.588014 v 0.11191 l 1.063077,1.06307 v 12.47716 h -4.886422 z m 0.354358,-7.62804 v 7.16178 h 4.065802 v -11.65655 h -3.692792 q -0.0746,0.83928 -1.380135,0.85793 v 3.63684 z"
             style="font-style:normal;font-variant:normal;font-weight:normal;font-stretch:normal;font-family:'Strenuous 3D';-inkscape-font-specification:'Strenuous 3D';fill:#5c5c5c;fill-opacity:1;stroke-width:0.46626166"
             id="path979" />
        </g>
        <path
           d="M 2.8243853,292.65926 H 2.7124825 v -4.66262 H 13.734907 v 0.11191 l 1.063077,1.06307 v 4.55072 h -2.890822 v 7.92645 H 6.8342353 L 5.7711588,300.58571 H 5.659256 v -6.86337 H 3.8874618 Z M 10.377824,292.193 h 2.890822 v -3.73009 H 3.1787441 v 3.73009 h 2.9467735 v 7.92645 h 4.2523064 z"
           style="font-style:normal;font-variant:normal;font-weight:normal;font-stretch:normal;font-family:'Strenuous 3D';-inkscape-font-specification:'Strenuous 3D';fill:#ffffff;fill-opacity:1;stroke-width:0.46626166"
           id="path982" />
        <path
           d="m 14.592821,287.99664 h 5.781645 l 0.0373,0.14921 1.025775,1.02577 0.205155,0.93253 0.503563,-2.10751 h 5.016975 l -0.0373,0.11191 1.081727,1.06307 -3.879297,12.47717 h -4.681266 l -1.063077,-1.06308 h -0.09325 z m 4.233656,12.12281 h 4.084452 l 3.61819,-11.65654 h -4.00985 l -1.230931,5.61379 -0.335708,-1.7345 -0.951174,-3.87929 h -4.774519 z"
           style="font-style:normal;font-variant:normal;font-weight:normal;font-stretch:normal;font-family:'Strenuous 3D';-inkscape-font-specification:'Strenuous 3D';fill:#ffffff;fill-opacity:1;stroke-width:0.46626166"
           id="path984" />
        <path
           d="m 29.475882,300.58571 h -0.111903 v -6.26656 l -0.895223,-0.89522 h -0.111902 v -4.56936 q 1.324183,-0.0186 1.417435,-0.85793 h 4.588014 v 0.11191 l 1.063077,1.06307 v 12.47717 h -4.886422 z m 0.354358,-7.62804 v 7.16178 h 4.065802 V 288.46291 H 30.20325 q -0.0746,0.83927 -1.380135,0.85792 v 3.63684 z"
           style="font-style:normal;font-variant:normal;font-weight:normal;font-stretch:normal;font-family:'Strenuous 3D';-inkscape-font-specification:'Strenuous 3D';fill:#ffffff;fill-opacity:1;stroke-width:0.46626166"
           id="path986" />
      </g>
    </g>
  </g>
</svg>
